<?xml version="1.0" standalone="no"?>
<!DOCTYPE svg PUBLIC "-//W3C//DTD SVG 20010904//EN"
 "http://www.w3.org/TR/2001/REC-SVG-20010904/DTD/svg10.dtd">
<svg version="1.0" xmlns="http://www.w3.org/2000/svg"
 width="500.000000pt" height="500.000000pt" viewBox="0 0 500.000000 500.000000"
 preserveAspectRatio="xMidYMid meet">

<g transform="translate(0.000000,500.000000) scale(0.100000,-0.100000)"
fill="#000000" stroke="none">
<path d="M2072 2503 c3 -44 5 -48 31 -51 15 -2 27 1 27 7 0 6 -9 11 -20 11
-17 0 -20 7 -20 40 0 22 -5 40 -11 40 -6 0 -9 -19 -7 -47z"/>
<path d="M2213 2505 c0 -27 2 -38 4 -22 2 15 2 37 0 50 -2 12 -4 0 -4 -28z"/>
<path d="M2296 2534 c-9 -23 -8 -24 19 -34 35 -13 33 -34 -2 -25 -26 6 -27 5
-12 -10 14 -14 21 -15 38 -5 26 13 23 31 -7 45 -28 13 -30 39 -2 32 11 -3 20
-1 20 4 0 16 -48 10 -54 -7z"/>
<path d="M2438 2543 c18 -4 22 -11 22 -44 0 -24 4 -38 10 -34 6 3 10 21 10 40
0 24 5 35 18 38 9 3 -5 5 -33 4 -27 0 -40 -2 -27 -4z"/>
<path d="M2582 2503 c3 -46 4 -48 36 -51 18 -2 32 1 32 7 0 6 -11 11 -25 11
-31 0 -33 15 -2 25 l22 8 -22 4 c-31 6 -29 23 2 23 14 0 25 5 25 10 0 6 -16
10 -36 10 l-35 0 3 -47z"/>
<path d="M2720 2505 c0 -25 5 -45 10 -45 6 0 10 12 10 28 l1 27 28 -33 c15
-17 31 -29 34 -25 11 10 8 81 -3 88 -6 4 -10 -7 -10 -27 l-1 -33 -28 33 c-15
17 -31 32 -34 32 -4 0 -7 -20 -7 -45z"/>
<path d="M2982 2505 c-12 -25 -17 -45 -12 -45 6 0 10 5 10 10 0 17 48 11 59
-7 6 -11 11 -13 11 -5 0 12 -37 92 -43 92 -2 0 -13 -20 -25 -45z m38 -6 c0 -5
-7 -9 -15 -9 -9 0 -12 6 -9 15 6 15 24 11 24 -6z"/>
<path d="M3120 2505 c0 -25 5 -45 10 -45 6 0 10 12 10 28 l1 27 29 -35 29 -35
-1 55 c-1 35 -3 43 -5 23 -5 -41 -14 -41 -36 -3 -25 42 -37 37 -37 -15z"/>
<path d="M3280 2500 c0 -53 3 -56 43 -41 52 20 37 91 -20 91 -21 0 -23 -4 -23
-50z m55 0 c0 -18 -6 -26 -22 -28 -20 -3 -23 1 -23 28 0 27 3 31 23 28 16 -2
22 -10 22 -28z"/>
<path d="M3512 2503 c3 -45 5 -48 32 -51 16 -2 33 1 39 7 8 8 2 11 -21 11 -18
0 -32 5 -32 10 0 6 9 10 20 10 11 0 20 5 20 10 0 6 -9 10 -20 10 -11 0 -20 5
-20 10 0 6 11 10 24 10 14 0 28 5 31 10 4 6 -10 10 -35 10 l-41 0 3 -47z"/>
<path d="M3650 2505 c0 -25 5 -45 10 -45 6 0 10 12 10 28 l1 27 28 -33 c15
-17 31 -29 34 -25 11 10 8 81 -3 88 -6 4 -10 -7 -10 -27 l-1 -33 -28 33 c-15
17 -31 32 -34 32 -4 0 -7 -20 -7 -45z"/>
<path d="M3850 2515 c-4 -30 -9 -40 -22 -39 -20 2 -24 -11 -7 -22 21 -12 41
21 37 62 l-4 39 -4 -40z"/>
<path d="M3945 2526 c-18 -26 -11 -52 16 -67 43 -22 86 36 53 72 -23 26 -50
24 -69 -5z m60 -26 c0 -18 -6 -26 -23 -28 -13 -2 -25 3 -28 12 -10 26 4 48 28
44 17 -2 23 -10 23 -28z"/>
<path d="M4105 2523 c10 -14 21 -38 25 -52 l8 -26 1 25 c1 14 8 34 16 44 8 11
15 25 15 30 0 6 -9 0 -19 -13 l-19 -24 -13 21 c-8 12 -18 22 -23 22 -4 0 0
-12 9 -27z"/>
</g>
</svg>
